<mxfile host="Electron" agent="Mozilla/5.0 (Windows NT 10.0; Win64; x64) AppleWebKit/537.36 (KHTML, like Gecko) draw.io/27.0.9 Chrome/134.0.6998.205 Electron/35.4.0 Safari/537.36" version="27.0.9">
  <diagram name="Страница — 1" id="4_a2UAqpwmKXYzxfLa_J">
    <mxGraphModel dx="2253" dy="849" grid="1" gridSize="10" guides="1" tooltips="1" connect="1" arrows="1" fold="1" page="1" pageScale="1" pageWidth="827" pageHeight="1169" math="0" shadow="0">
      <root>
        <mxCell id="0" />
        <mxCell id="1" parent="0" />
        <mxCell id="M1zY204ZlTS8e85Jj3LD-14" value="" style="edgeStyle=orthogonalEdgeStyle;rounded=0;orthogonalLoop=1;jettySize=auto;html=1;" edge="1" parent="1" source="M1zY204ZlTS8e85Jj3LD-1" target="M1zY204ZlTS8e85Jj3LD-11">
          <mxGeometry relative="1" as="geometry" />
        </mxCell>
        <mxCell id="M1zY204ZlTS8e85Jj3LD-1" value="Начало" style="strokeWidth=2;html=1;shape=mxgraph.flowchart.terminator;whiteSpace=wrap;" vertex="1" parent="1">
          <mxGeometry x="360" y="30" width="120" height="40" as="geometry" />
        </mxCell>
        <mxCell id="M1zY204ZlTS8e85Jj3LD-2" value="Конец" style="strokeWidth=2;html=1;shape=mxgraph.flowchart.terminator;whiteSpace=wrap;" vertex="1" parent="1">
          <mxGeometry x="380" y="1190" width="80" height="40" as="geometry" />
        </mxCell>
        <mxCell id="M1zY204ZlTS8e85Jj3LD-17" value="" style="edgeStyle=orthogonalEdgeStyle;rounded=0;orthogonalLoop=1;jettySize=auto;html=1;" edge="1" parent="1" source="M1zY204ZlTS8e85Jj3LD-8" target="M1zY204ZlTS8e85Jj3LD-16">
          <mxGeometry relative="1" as="geometry" />
        </mxCell>
        <mxCell id="M1zY204ZlTS8e85Jj3LD-87" value="Да" style="edgeLabel;html=1;align=center;verticalAlign=middle;resizable=0;points=[];" vertex="1" connectable="0" parent="M1zY204ZlTS8e85Jj3LD-17">
          <mxGeometry x="-0.45" y="3" relative="1" as="geometry">
            <mxPoint as="offset" />
          </mxGeometry>
        </mxCell>
        <mxCell id="M1zY204ZlTS8e85Jj3LD-85" style="edgeStyle=orthogonalEdgeStyle;rounded=0;orthogonalLoop=1;jettySize=auto;html=1;exitX=0;exitY=0.5;exitDx=0;exitDy=0;exitPerimeter=0;entryX=0.5;entryY=0;entryDx=0;entryDy=0;" edge="1" parent="1" source="M1zY204ZlTS8e85Jj3LD-8" target="M1zY204ZlTS8e85Jj3LD-11">
          <mxGeometry relative="1" as="geometry">
            <Array as="points">
              <mxPoint x="270" y="240" />
              <mxPoint x="270" y="90" />
              <mxPoint x="420" y="90" />
            </Array>
          </mxGeometry>
        </mxCell>
        <mxCell id="M1zY204ZlTS8e85Jj3LD-86" value="Нет" style="edgeLabel;html=1;align=center;verticalAlign=middle;resizable=0;points=[];" vertex="1" connectable="0" parent="M1zY204ZlTS8e85Jj3LD-85">
          <mxGeometry x="-0.135" y="3" relative="1" as="geometry">
            <mxPoint as="offset" />
          </mxGeometry>
        </mxCell>
        <mxCell id="M1zY204ZlTS8e85Jj3LD-8" value="Авторизация&lt;br&gt;успешна?" style="strokeWidth=2;html=1;shape=mxgraph.flowchart.decision;whiteSpace=wrap;" vertex="1" parent="1">
          <mxGeometry x="350" y="210" width="140" height="60" as="geometry" />
        </mxCell>
        <mxCell id="M1zY204ZlTS8e85Jj3LD-13" value="" style="edgeStyle=orthogonalEdgeStyle;rounded=0;orthogonalLoop=1;jettySize=auto;html=1;" edge="1" parent="1" source="M1zY204ZlTS8e85Jj3LD-11" target="M1zY204ZlTS8e85Jj3LD-8">
          <mxGeometry relative="1" as="geometry" />
        </mxCell>
        <mxCell id="M1zY204ZlTS8e85Jj3LD-11" value="Ввод логина&lt;br&gt;и пароля" style="shape=parallelogram;html=1;strokeWidth=2;perimeter=parallelogramPerimeter;whiteSpace=wrap;rounded=1;arcSize=12;size=0.23;" vertex="1" parent="1">
          <mxGeometry x="350" y="110" width="140" height="60" as="geometry" />
        </mxCell>
        <mxCell id="M1zY204ZlTS8e85Jj3LD-19" value="" style="edgeStyle=orthogonalEdgeStyle;rounded=0;orthogonalLoop=1;jettySize=auto;html=1;" edge="1" parent="1" source="M1zY204ZlTS8e85Jj3LD-16" target="M1zY204ZlTS8e85Jj3LD-18">
          <mxGeometry relative="1" as="geometry" />
        </mxCell>
        <mxCell id="M1zY204ZlTS8e85Jj3LD-16" value="Определение роли пользователя" style="rounded=1;whiteSpace=wrap;html=1;absoluteArcSize=1;arcSize=14;strokeWidth=2;" vertex="1" parent="1">
          <mxGeometry x="350" y="310" width="140" height="60" as="geometry" />
        </mxCell>
        <mxCell id="M1zY204ZlTS8e85Jj3LD-58" value="" style="edgeStyle=orthogonalEdgeStyle;rounded=0;orthogonalLoop=1;jettySize=auto;html=1;" edge="1" parent="1" source="M1zY204ZlTS8e85Jj3LD-18" target="M1zY204ZlTS8e85Jj3LD-56">
          <mxGeometry relative="1" as="geometry" />
        </mxCell>
        <mxCell id="M1zY204ZlTS8e85Jj3LD-59" style="edgeStyle=orthogonalEdgeStyle;rounded=0;orthogonalLoop=1;jettySize=auto;html=1;entryX=0.5;entryY=0;entryDx=0;entryDy=0;exitX=0.5;exitY=1;exitDx=0;exitDy=0;" edge="1" parent="1" source="M1zY204ZlTS8e85Jj3LD-18" target="M1zY204ZlTS8e85Jj3LD-55">
          <mxGeometry relative="1" as="geometry" />
        </mxCell>
        <mxCell id="M1zY204ZlTS8e85Jj3LD-18" value="Определение уровня доступа" style="rounded=1;whiteSpace=wrap;html=1;absoluteArcSize=1;arcSize=14;strokeWidth=2;" vertex="1" parent="1">
          <mxGeometry x="350" y="410" width="140" height="60" as="geometry" />
        </mxCell>
        <mxCell id="M1zY204ZlTS8e85Jj3LD-70" style="edgeStyle=orthogonalEdgeStyle;rounded=0;orthogonalLoop=1;jettySize=auto;html=1;exitX=0.5;exitY=1;exitDx=0;exitDy=0;" edge="1" parent="1" source="M1zY204ZlTS8e85Jj3LD-30">
          <mxGeometry relative="1" as="geometry">
            <mxPoint x="420" y="910" as="targetPoint" />
            <Array as="points">
              <mxPoint x="-40" y="830" />
              <mxPoint x="421" y="830" />
            </Array>
          </mxGeometry>
        </mxCell>
        <mxCell id="M1zY204ZlTS8e85Jj3LD-30" value="Редактирование&lt;br&gt;данных" style="rounded=1;whiteSpace=wrap;html=1;absoluteArcSize=1;arcSize=14;strokeWidth=2;" vertex="1" parent="1">
          <mxGeometry x="-110" y="730" width="140" height="60" as="geometry" />
        </mxCell>
        <mxCell id="M1zY204ZlTS8e85Jj3LD-34" value="Вывод данных" style="rounded=1;whiteSpace=wrap;html=1;absoluteArcSize=1;arcSize=14;strokeWidth=2;" vertex="1" parent="1">
          <mxGeometry x="-270" y="730" width="140" height="60" as="geometry" />
        </mxCell>
        <mxCell id="M1zY204ZlTS8e85Jj3LD-72" style="edgeStyle=orthogonalEdgeStyle;rounded=0;orthogonalLoop=1;jettySize=auto;html=1;exitX=0.5;exitY=1;exitDx=0;exitDy=0;" edge="1" parent="1" source="M1zY204ZlTS8e85Jj3LD-35">
          <mxGeometry relative="1" as="geometry">
            <mxPoint x="420" y="870" as="targetPoint" />
          </mxGeometry>
        </mxCell>
        <mxCell id="M1zY204ZlTS8e85Jj3LD-35" value="Редактирование&lt;br&gt;данных" style="rounded=1;whiteSpace=wrap;html=1;absoluteArcSize=1;arcSize=14;strokeWidth=2;" vertex="1" parent="1">
          <mxGeometry x="250" y="730" width="140" height="60" as="geometry" />
        </mxCell>
        <mxCell id="M1zY204ZlTS8e85Jj3LD-36" value="Вывод данных" style="rounded=1;whiteSpace=wrap;html=1;absoluteArcSize=1;arcSize=14;strokeWidth=2;" vertex="1" parent="1">
          <mxGeometry x="90" y="730" width="140" height="60" as="geometry" />
        </mxCell>
        <mxCell id="M1zY204ZlTS8e85Jj3LD-37" value="Редактирование&lt;br&gt;данных" style="rounded=1;whiteSpace=wrap;html=1;absoluteArcSize=1;arcSize=14;strokeWidth=2;" vertex="1" parent="1">
          <mxGeometry x="610" y="730" width="140" height="60" as="geometry" />
        </mxCell>
        <mxCell id="M1zY204ZlTS8e85Jj3LD-73" style="edgeStyle=orthogonalEdgeStyle;rounded=0;orthogonalLoop=1;jettySize=auto;html=1;exitX=0.5;exitY=1;exitDx=0;exitDy=0;" edge="1" parent="1" source="M1zY204ZlTS8e85Jj3LD-38">
          <mxGeometry relative="1" as="geometry">
            <mxPoint x="420" y="870" as="targetPoint" />
          </mxGeometry>
        </mxCell>
        <mxCell id="M1zY204ZlTS8e85Jj3LD-38" value="Вывод данных" style="rounded=1;whiteSpace=wrap;html=1;absoluteArcSize=1;arcSize=14;strokeWidth=2;" vertex="1" parent="1">
          <mxGeometry x="450" y="730" width="140" height="60" as="geometry" />
        </mxCell>
        <mxCell id="M1zY204ZlTS8e85Jj3LD-39" value="Редактирование&lt;br&gt;данных" style="rounded=1;whiteSpace=wrap;html=1;absoluteArcSize=1;arcSize=14;strokeWidth=2;" vertex="1" parent="1">
          <mxGeometry x="970" y="730" width="140" height="60" as="geometry" />
        </mxCell>
        <mxCell id="M1zY204ZlTS8e85Jj3LD-75" style="edgeStyle=orthogonalEdgeStyle;rounded=0;orthogonalLoop=1;jettySize=auto;html=1;exitX=0.5;exitY=1;exitDx=0;exitDy=0;" edge="1" parent="1" source="M1zY204ZlTS8e85Jj3LD-40">
          <mxGeometry relative="1" as="geometry">
            <mxPoint x="420" y="870" as="targetPoint" />
          </mxGeometry>
        </mxCell>
        <mxCell id="M1zY204ZlTS8e85Jj3LD-40" value="Вывод данных" style="rounded=1;whiteSpace=wrap;html=1;absoluteArcSize=1;arcSize=14;strokeWidth=2;" vertex="1" parent="1">
          <mxGeometry x="810" y="730" width="140" height="60" as="geometry" />
        </mxCell>
        <mxCell id="M1zY204ZlTS8e85Jj3LD-41" value="" style="endArrow=classic;html=1;rounded=0;exitX=0.5;exitY=1;exitDx=0;exitDy=0;entryX=0.5;entryY=0;entryDx=0;entryDy=0;edgeStyle=elbowEdgeStyle;elbow=vertical;" edge="1" parent="1" target="M1zY204ZlTS8e85Jj3LD-34">
          <mxGeometry width="50" height="50" relative="1" as="geometry">
            <mxPoint x="-120" y="700" as="sourcePoint" />
            <mxPoint x="160" y="590" as="targetPoint" />
          </mxGeometry>
        </mxCell>
        <mxCell id="M1zY204ZlTS8e85Jj3LD-42" value="" style="endArrow=classic;html=1;rounded=0;entryX=0.5;entryY=0;entryDx=0;entryDy=0;edgeStyle=elbowEdgeStyle;elbow=vertical;exitX=0.5;exitY=1;exitDx=0;exitDy=0;exitPerimeter=0;" edge="1" parent="1" source="M1zY204ZlTS8e85Jj3LD-51" target="M1zY204ZlTS8e85Jj3LD-30">
          <mxGeometry width="50" height="50" relative="1" as="geometry">
            <mxPoint x="-120" y="700" as="sourcePoint" />
            <mxPoint x="210" y="530" as="targetPoint" />
          </mxGeometry>
        </mxCell>
        <mxCell id="M1zY204ZlTS8e85Jj3LD-43" value="" style="endArrow=classic;html=1;rounded=0;entryX=0.5;entryY=0;entryDx=0;entryDy=0;edgeStyle=elbowEdgeStyle;elbow=vertical;exitX=0.5;exitY=1;exitDx=0;exitDy=0;" edge="1" parent="1" target="M1zY204ZlTS8e85Jj3LD-40">
          <mxGeometry width="50" height="50" relative="1" as="geometry">
            <mxPoint x="960" y="700" as="sourcePoint" />
            <mxPoint x="780" y="710" as="targetPoint" />
          </mxGeometry>
        </mxCell>
        <mxCell id="M1zY204ZlTS8e85Jj3LD-44" value="" style="endArrow=classic;html=1;rounded=0;entryX=0.5;entryY=0;entryDx=0;entryDy=0;edgeStyle=elbowEdgeStyle;elbow=vertical;exitX=0.5;exitY=1;exitDx=0;exitDy=0;" edge="1" parent="1" target="M1zY204ZlTS8e85Jj3LD-39">
          <mxGeometry width="50" height="50" relative="1" as="geometry">
            <mxPoint x="960" y="700" as="sourcePoint" />
            <mxPoint x="980" y="760" as="targetPoint" />
          </mxGeometry>
        </mxCell>
        <mxCell id="M1zY204ZlTS8e85Jj3LD-45" value="" style="endArrow=classic;html=1;rounded=0;entryX=0.5;entryY=0;entryDx=0;entryDy=0;edgeStyle=elbowEdgeStyle;elbow=vertical;exitX=0.5;exitY=1;exitDx=0;exitDy=0;" edge="1" parent="1" target="M1zY204ZlTS8e85Jj3LD-38">
          <mxGeometry width="50" height="50" relative="1" as="geometry">
            <mxPoint x="600" y="700" as="sourcePoint" />
            <mxPoint x="460" y="720" as="targetPoint" />
          </mxGeometry>
        </mxCell>
        <mxCell id="M1zY204ZlTS8e85Jj3LD-46" value="" style="endArrow=classic;html=1;rounded=0;entryX=0.5;entryY=0;entryDx=0;entryDy=0;edgeStyle=elbowEdgeStyle;elbow=vertical;exitX=0.5;exitY=1;exitDx=0;exitDy=0;" edge="1" parent="1" target="M1zY204ZlTS8e85Jj3LD-37">
          <mxGeometry width="50" height="50" relative="1" as="geometry">
            <mxPoint x="600" y="700" as="sourcePoint" />
            <mxPoint x="680" y="850" as="targetPoint" />
          </mxGeometry>
        </mxCell>
        <mxCell id="M1zY204ZlTS8e85Jj3LD-47" value="" style="endArrow=classic;html=1;rounded=0;entryX=0.5;entryY=0;entryDx=0;entryDy=0;edgeStyle=elbowEdgeStyle;elbow=vertical;exitX=0.5;exitY=1;exitDx=0;exitDy=0;" edge="1" parent="1" target="M1zY204ZlTS8e85Jj3LD-36">
          <mxGeometry width="50" height="50" relative="1" as="geometry">
            <mxPoint x="240" y="700" as="sourcePoint" />
            <mxPoint x="500" y="930" as="targetPoint" />
          </mxGeometry>
        </mxCell>
        <mxCell id="M1zY204ZlTS8e85Jj3LD-48" value="" style="endArrow=classic;html=1;rounded=0;entryX=0.5;entryY=0;entryDx=0;entryDy=0;edgeStyle=elbowEdgeStyle;elbow=vertical;exitX=0.5;exitY=1;exitDx=0;exitDy=0;" edge="1" parent="1" target="M1zY204ZlTS8e85Jj3LD-35">
          <mxGeometry width="50" height="50" relative="1" as="geometry">
            <mxPoint x="240" y="700" as="sourcePoint" />
            <mxPoint x="340" y="770" as="targetPoint" />
          </mxGeometry>
        </mxCell>
        <mxCell id="M1zY204ZlTS8e85Jj3LD-49" value="Сохранение &lt;br&gt;данных &lt;br&gt;в базе данных" style="strokeWidth=2;html=1;shape=mxgraph.flowchart.direct_data;whiteSpace=wrap;" vertex="1" parent="1">
          <mxGeometry x="350" y="870" width="140" height="60" as="geometry" />
        </mxCell>
        <mxCell id="M1zY204ZlTS8e85Jj3LD-51" value="Склад" style="strokeWidth=2;html=1;shape=mxgraph.flowchart.decision;whiteSpace=wrap;" vertex="1" parent="1">
          <mxGeometry x="-190" y="640" width="140" height="60" as="geometry" />
        </mxCell>
        <mxCell id="M1zY204ZlTS8e85Jj3LD-52" value="Тестирование" style="strokeWidth=2;html=1;shape=mxgraph.flowchart.decision;whiteSpace=wrap;" vertex="1" parent="1">
          <mxGeometry x="890" y="640" width="140" height="60" as="geometry" />
        </mxCell>
        <mxCell id="M1zY204ZlTS8e85Jj3LD-53" value="Транспортировка" style="strokeWidth=2;html=1;shape=mxgraph.flowchart.decision;whiteSpace=wrap;" vertex="1" parent="1">
          <mxGeometry x="530" y="640" width="140" height="60" as="geometry" />
        </mxCell>
        <mxCell id="M1zY204ZlTS8e85Jj3LD-54" value="Поставка" style="strokeWidth=2;html=1;shape=mxgraph.flowchart.decision;whiteSpace=wrap;" vertex="1" parent="1">
          <mxGeometry x="170" y="640" width="140" height="60" as="geometry" />
        </mxCell>
        <mxCell id="M1zY204ZlTS8e85Jj3LD-61" value="" style="edgeStyle=orthogonalEdgeStyle;rounded=0;orthogonalLoop=1;jettySize=auto;html=1;exitX=0.5;exitY=1;exitDx=0;exitDy=0;" edge="1" parent="1" source="M1zY204ZlTS8e85Jj3LD-55" target="M1zY204ZlTS8e85Jj3LD-54">
          <mxGeometry relative="1" as="geometry" />
        </mxCell>
        <mxCell id="M1zY204ZlTS8e85Jj3LD-55" value="Инженер-конструктор" style="rounded=1;whiteSpace=wrap;html=1;absoluteArcSize=1;arcSize=14;strokeWidth=2;" vertex="1" parent="1">
          <mxGeometry x="-10" y="510" width="140" height="60" as="geometry" />
        </mxCell>
        <mxCell id="M1zY204ZlTS8e85Jj3LD-56" value="Администратор" style="rounded=1;whiteSpace=wrap;html=1;absoluteArcSize=1;arcSize=14;strokeWidth=2;" vertex="1" parent="1">
          <mxGeometry x="350" y="510" width="140" height="60" as="geometry" />
        </mxCell>
        <mxCell id="M1zY204ZlTS8e85Jj3LD-57" value="Инженер-испытатель" style="rounded=1;whiteSpace=wrap;html=1;absoluteArcSize=1;arcSize=14;strokeWidth=2;" vertex="1" parent="1">
          <mxGeometry x="710" y="510" width="140" height="60" as="geometry" />
        </mxCell>
        <mxCell id="M1zY204ZlTS8e85Jj3LD-60" value="" style="endArrow=classic;html=1;rounded=0;exitX=0.5;exitY=1;exitDx=0;exitDy=0;entryX=0.5;entryY=0;entryDx=0;entryDy=0;edgeStyle=elbowEdgeStyle;elbow=vertical;" edge="1" parent="1" source="M1zY204ZlTS8e85Jj3LD-18" target="M1zY204ZlTS8e85Jj3LD-57">
          <mxGeometry width="50" height="50" relative="1" as="geometry">
            <mxPoint x="720" y="460" as="sourcePoint" />
            <mxPoint x="770" y="410" as="targetPoint" />
          </mxGeometry>
        </mxCell>
        <mxCell id="M1zY204ZlTS8e85Jj3LD-62" style="edgeStyle=orthogonalEdgeStyle;rounded=0;orthogonalLoop=1;jettySize=auto;html=1;entryX=0.5;entryY=0;entryDx=0;entryDy=0;entryPerimeter=0;exitX=0.5;exitY=1;exitDx=0;exitDy=0;" edge="1" parent="1" source="M1zY204ZlTS8e85Jj3LD-55" target="M1zY204ZlTS8e85Jj3LD-51">
          <mxGeometry relative="1" as="geometry" />
        </mxCell>
        <mxCell id="M1zY204ZlTS8e85Jj3LD-63" style="edgeStyle=orthogonalEdgeStyle;rounded=0;orthogonalLoop=1;jettySize=auto;html=1;entryX=0.5;entryY=0;entryDx=0;entryDy=0;entryPerimeter=0;exitX=0.5;exitY=1;exitDx=0;exitDy=0;" edge="1" parent="1" source="M1zY204ZlTS8e85Jj3LD-57" target="M1zY204ZlTS8e85Jj3LD-53">
          <mxGeometry relative="1" as="geometry" />
        </mxCell>
        <mxCell id="M1zY204ZlTS8e85Jj3LD-64" style="edgeStyle=orthogonalEdgeStyle;rounded=0;orthogonalLoop=1;jettySize=auto;html=1;entryX=0.5;entryY=0;entryDx=0;entryDy=0;entryPerimeter=0;exitX=0.5;exitY=1;exitDx=0;exitDy=0;" edge="1" parent="1" source="M1zY204ZlTS8e85Jj3LD-57" target="M1zY204ZlTS8e85Jj3LD-52">
          <mxGeometry relative="1" as="geometry" />
        </mxCell>
        <mxCell id="M1zY204ZlTS8e85Jj3LD-65" style="edgeStyle=orthogonalEdgeStyle;rounded=0;orthogonalLoop=1;jettySize=auto;html=1;entryX=0.5;entryY=0;entryDx=0;entryDy=0;entryPerimeter=0;exitX=0.5;exitY=1;exitDx=0;exitDy=0;" edge="1" parent="1" source="M1zY204ZlTS8e85Jj3LD-56" target="M1zY204ZlTS8e85Jj3LD-54">
          <mxGeometry relative="1" as="geometry">
            <mxPoint x="440" y="630" as="sourcePoint" />
          </mxGeometry>
        </mxCell>
        <mxCell id="M1zY204ZlTS8e85Jj3LD-66" style="edgeStyle=orthogonalEdgeStyle;rounded=0;orthogonalLoop=1;jettySize=auto;html=1;entryX=0.5;entryY=0;entryDx=0;entryDy=0;entryPerimeter=0;exitX=0.5;exitY=1;exitDx=0;exitDy=0;" edge="1" parent="1" source="M1zY204ZlTS8e85Jj3LD-56" target="M1zY204ZlTS8e85Jj3LD-51">
          <mxGeometry relative="1" as="geometry" />
        </mxCell>
        <mxCell id="M1zY204ZlTS8e85Jj3LD-67" style="edgeStyle=orthogonalEdgeStyle;rounded=0;orthogonalLoop=1;jettySize=auto;html=1;entryX=0.5;entryY=0;entryDx=0;entryDy=0;entryPerimeter=0;exitX=0.5;exitY=1;exitDx=0;exitDy=0;" edge="1" parent="1" source="M1zY204ZlTS8e85Jj3LD-56" target="M1zY204ZlTS8e85Jj3LD-53">
          <mxGeometry relative="1" as="geometry" />
        </mxCell>
        <mxCell id="M1zY204ZlTS8e85Jj3LD-68" style="edgeStyle=orthogonalEdgeStyle;rounded=0;orthogonalLoop=1;jettySize=auto;html=1;entryX=0.5;entryY=0;entryDx=0;entryDy=0;entryPerimeter=0;exitX=0.5;exitY=1;exitDx=0;exitDy=0;" edge="1" parent="1" source="M1zY204ZlTS8e85Jj3LD-56" target="M1zY204ZlTS8e85Jj3LD-52">
          <mxGeometry relative="1" as="geometry" />
        </mxCell>
        <mxCell id="M1zY204ZlTS8e85Jj3LD-69" style="edgeStyle=orthogonalEdgeStyle;rounded=0;orthogonalLoop=1;jettySize=auto;html=1;entryX=0.5;entryY=0;entryDx=0;entryDy=0;entryPerimeter=0;exitX=0.5;exitY=1;exitDx=0;exitDy=0;" edge="1" parent="1" source="M1zY204ZlTS8e85Jj3LD-34" target="M1zY204ZlTS8e85Jj3LD-49">
          <mxGeometry relative="1" as="geometry" />
        </mxCell>
        <mxCell id="M1zY204ZlTS8e85Jj3LD-71" style="edgeStyle=orthogonalEdgeStyle;rounded=0;orthogonalLoop=1;jettySize=auto;html=1;entryX=0.5;entryY=0;entryDx=0;entryDy=0;entryPerimeter=0;exitX=0.5;exitY=1;exitDx=0;exitDy=0;" edge="1" parent="1" source="M1zY204ZlTS8e85Jj3LD-36" target="M1zY204ZlTS8e85Jj3LD-49">
          <mxGeometry relative="1" as="geometry" />
        </mxCell>
        <mxCell id="M1zY204ZlTS8e85Jj3LD-74" style="edgeStyle=orthogonalEdgeStyle;rounded=0;orthogonalLoop=1;jettySize=auto;html=1;exitX=0.5;exitY=1;exitDx=0;exitDy=0;entryX=0.5;entryY=0;entryDx=0;entryDy=0;entryPerimeter=0;" edge="1" parent="1" source="M1zY204ZlTS8e85Jj3LD-37" target="M1zY204ZlTS8e85Jj3LD-49">
          <mxGeometry relative="1" as="geometry" />
        </mxCell>
        <mxCell id="M1zY204ZlTS8e85Jj3LD-76" style="edgeStyle=orthogonalEdgeStyle;rounded=0;orthogonalLoop=1;jettySize=auto;html=1;exitX=0.5;exitY=1;exitDx=0;exitDy=0;entryX=0.5;entryY=0;entryDx=0;entryDy=0;entryPerimeter=0;" edge="1" parent="1" source="M1zY204ZlTS8e85Jj3LD-39" target="M1zY204ZlTS8e85Jj3LD-49">
          <mxGeometry relative="1" as="geometry" />
        </mxCell>
        <mxCell id="M1zY204ZlTS8e85Jj3LD-80" style="edgeStyle=orthogonalEdgeStyle;rounded=0;orthogonalLoop=1;jettySize=auto;html=1;exitX=0.5;exitY=1;exitDx=0;exitDy=0;exitPerimeter=0;entryX=0.5;entryY=0;entryDx=0;entryDy=0;" edge="1" parent="1" source="M1zY204ZlTS8e85Jj3LD-77" target="M1zY204ZlTS8e85Jj3LD-79">
          <mxGeometry relative="1" as="geometry" />
        </mxCell>
        <mxCell id="M1zY204ZlTS8e85Jj3LD-83" value="Нет" style="edgeLabel;html=1;align=center;verticalAlign=middle;resizable=0;points=[];" vertex="1" connectable="0" parent="M1zY204ZlTS8e85Jj3LD-80">
          <mxGeometry x="-0.15" relative="1" as="geometry">
            <mxPoint as="offset" />
          </mxGeometry>
        </mxCell>
        <mxCell id="M1zY204ZlTS8e85Jj3LD-81" style="edgeStyle=orthogonalEdgeStyle;rounded=0;orthogonalLoop=1;jettySize=auto;html=1;exitX=0;exitY=0.5;exitDx=0;exitDy=0;exitPerimeter=0;entryX=0.5;entryY=0;entryDx=0;entryDy=0;" edge="1" parent="1" source="M1zY204ZlTS8e85Jj3LD-77" target="M1zY204ZlTS8e85Jj3LD-56">
          <mxGeometry relative="1" as="geometry">
            <Array as="points">
              <mxPoint x="-430" y="1010" />
              <mxPoint x="-430" y="480" />
              <mxPoint x="420" y="480" />
            </Array>
          </mxGeometry>
        </mxCell>
        <mxCell id="M1zY204ZlTS8e85Jj3LD-82" value="Да" style="edgeLabel;html=1;align=center;verticalAlign=middle;resizable=0;points=[];" vertex="1" connectable="0" parent="M1zY204ZlTS8e85Jj3LD-81">
          <mxGeometry x="-0.1392" y="3" relative="1" as="geometry">
            <mxPoint as="offset" />
          </mxGeometry>
        </mxCell>
        <mxCell id="M1zY204ZlTS8e85Jj3LD-77" value="Продолжить работу с программой?" style="strokeWidth=2;html=1;shape=mxgraph.flowchart.decision;whiteSpace=wrap;" vertex="1" parent="1">
          <mxGeometry x="330" y="960" width="180" height="100" as="geometry" />
        </mxCell>
        <mxCell id="M1zY204ZlTS8e85Jj3LD-78" style="edgeStyle=orthogonalEdgeStyle;rounded=0;orthogonalLoop=1;jettySize=auto;html=1;exitX=0.5;exitY=1;exitDx=0;exitDy=0;exitPerimeter=0;entryX=0.5;entryY=0;entryDx=0;entryDy=0;entryPerimeter=0;" edge="1" parent="1" source="M1zY204ZlTS8e85Jj3LD-49" target="M1zY204ZlTS8e85Jj3LD-77">
          <mxGeometry relative="1" as="geometry" />
        </mxCell>
        <mxCell id="M1zY204ZlTS8e85Jj3LD-88" value="" style="edgeStyle=orthogonalEdgeStyle;rounded=0;orthogonalLoop=1;jettySize=auto;html=1;" edge="1" parent="1" source="M1zY204ZlTS8e85Jj3LD-79" target="M1zY204ZlTS8e85Jj3LD-2">
          <mxGeometry relative="1" as="geometry" />
        </mxCell>
        <mxCell id="M1zY204ZlTS8e85Jj3LD-79" value="Завершение работы программы" style="rounded=1;whiteSpace=wrap;html=1;absoluteArcSize=1;arcSize=14;strokeWidth=2;" vertex="1" parent="1">
          <mxGeometry x="350" y="1100" width="140" height="60" as="geometry" />
        </mxCell>
      </root>
    </mxGraphModel>
  </diagram>
</mxfile>
